HIERARCHY
ROOT Hips
{
	OFFSET -0.001795 -0.223333 0.028219
	CHANNELS 6 Xposition Yposition Zposition Zrotation Yrotation Xrotation 
	JOINT LeftUpLeg
	{
		OFFSET 0.069520 -0.091406 -0.006815
		CHANNELS 3 Zrotation Yrotation Xrotation
		JOINT LeftLeg
		{
			OFFSET 0.034277 -0.375199 -0.004496
			CHANNELS 3 Zrotation Yrotation Xrotation
			JOINT LeftFoot
			{
				OFFSET -0.013596 -0.397961 -0.043693
				CHANNELS 3 Zrotation Yrotation Xrotation
				JOINT LeftToe
				{
					OFFSET 0.026358 -0.055791 0.119288
					CHANNELS 3 Zrotation Yrotation Xrotation
					End Site
					{
						OFFSET 0.000000 0.000000 0.000000
					}
				}
			}
		}
	}
	JOINT RightUpLeg
	{
		OFFSET -0.067670 -0.090522 -0.004320
		CHANNELS 3 Zrotation Yrotation Xrotation
		JOINT RightLeg
		{
			OFFSET -0.038290 -0.382569 -0.008850
			CHANNELS 3 Zrotation Yrotation Xrotation
			JOINT RightFoot
			{
				OFFSET 0.015774 -0.398415 -0.042312
				CHANNELS 3 Zrotation Yrotation Xrotation
				JOINT RightToe
				{
					OFFSET -0.025372 -0.048144 0.123348
					CHANNELS 3 Zrotation Yrotation Xrotation
					End Site
					{
						OFFSET 0.000000 0.000000 0.000000
					}
				}
			}
		}
	}
	JOINT Spine
	{
		OFFSET -0.002533 0.108963 -0.026696
		CHANNELS 3 Zrotation Yrotation Xrotation
		JOINT Spine1
		{
			OFFSET 0.005487 0.135180 0.001092
			CHANNELS 3 Zrotation Yrotation Xrotation
			JOINT Spine2
			{
				OFFSET 0.001457 0.052922 0.025425
				CHANNELS 3 Zrotation Yrotation Xrotation
				JOINT Neck
				{
					OFFSET -0.002778 0.213870 -0.042857
					CHANNELS 3 Zrotation Yrotation Xrotation
					JOINT Head
					{
						OFFSET 0.005152 0.064970 0.051349
						CHANNELS 3 Zrotation Yrotation Xrotation
						End Site
						{
							OFFSET 0.000000 0.000000 0.000000
						}
					}
				}
				JOINT LeftShoulder
				{
					OFFSET 0.078845 0.121749 -0.034090
					CHANNELS 3 Zrotation Yrotation Xrotation
					JOINT LeftArm
					{
						OFFSET 0.090977 0.030469 -0.008868
						CHANNELS 3 Zrotation Yrotation Xrotation
						JOINT LeftForeArm
						{
							OFFSET 0.259612 -0.012772 -0.027456
							CHANNELS 3 Zrotation Yrotation Xrotation
							JOINT LeftHand
							{
								OFFSET 0.249234 0.008986 -0.001171
								CHANNELS 3 Zrotation Yrotation Xrotation
								End Site
								{
									OFFSET 0.000000 0.000000 0.000000
								}
							}
						}
					}
				}
				JOINT RightShoulder
				{
					OFFSET -0.081759 0.118833 -0.038615
					CHANNELS 3 Zrotation Yrotation Xrotation
					JOINT RightArm
					{
						OFFSET -0.096012 0.032551 -0.009143
						CHANNELS 3 Zrotation Yrotation Xrotation
						JOINT RightForeArm
						{
							OFFSET -0.253742 -0.013329 -0.021401
							CHANNELS 3 Zrotation Yrotation Xrotation
							JOINT RightHand
							{
								OFFSET -0.255298 0.007772 -0.005559
								CHANNELS 3 Zrotation Yrotation Xrotation
								End Site
								{
									OFFSET 0.000000 0.000000 0.000000
								}
							}
						}
					}
				}
			}
		}
	}
}
MOTION
Frames: 16
Frame Time: 0.050000
-0.002478 0.807465 0.018929 -4.395500 -7.461788 8.917712 15.064249 -0.428094 27.909126 -13.979083 -0.874190 -44.982533 87.702880 52.147763 85.268976 0.000000 0.000000 0.000000 -26.940074 4.637473 15.495758 32.586952 5.667342 -30.494385 -70.413570 -55.679831 67.993553 0.000000 0.000000 0.000000 3.681827 1.010156 -13.043488 0.066458 0.798184 -31.661906 0.242575 7.494267 40.768574 11.870563 0.531358 -66.904543 0.000000 0.000000 0.000000 -13.661310 1.873665 -1.462651 -56.219801 -10.777448 -6.196964 -80.070044 45.011151 -36.286120 0.000000 0.000000 0.000000 15.184089 -10.317080 -5.312461 52.812781 -17.084522 -16.164200 162.312885 -34.075854 -125.622323 0.000000 0.000000 0.000000 
-0.002478 0.807465 0.018929 -4.395500 -7.461788 8.917712 15.064249 -0.428094 27.909126 -13.979083 -0.874190 -44.982533 87.702880 52.147763 85.268976 0.000000 0.000000 0.000000 -26.940074 4.637473 15.495758 32.586952 5.667342 -30.494385 -70.413570 -55.679831 67.993553 0.000000 0.000000 0.000000 3.681827 1.010156 -13.043488 0.066458 0.798184 -31.661906 0.242575 7.494267 40.768574 11.870563 0.531358 -66.904543 0.000000 0.000000 0.000000 -13.661310 1.873665 -1.462651 -56.219801 -10.777448 -6.196964 -80.070044 45.011151 -36.286120 0.000000 0.000000 0.000000 15.184089 -10.317080 -5.312461 52.812781 -17.084522 -16.164200 162.312885 -34.075854 -125.622323 0.000000 0.000000 0.000000 
-0.002478 0.829697 0.018929 -3.227616 -9.218835 4.810224 17.862993 -0.643227 25.125421 -11.936772 0.021936 -36.870606 82.031313 46.379615 91.779681 0.000000 0.000000 0.000000 -24.207076 3.728232 13.794752 28.763534 6.516909 -35.115673 -86.324212 -58.164268 78.599304 0.000000 0.000000 0.000000 3.476554 0.913940 -11.437710 2.238586 0.612209 -33.687842 2.123252 7.503086 43.236998 12.127034 0.842588 -70.002898 0.000000 0.000000 0.000000 -16.450045 9.605288 -5.713405 -54.633806 -7.585598 -7.725373 -54.785727 55.081126 -29.099678 0.000000 0.000000 0.000000 14.751891 -14.191836 -7.545288 53.018568 -11.995972 -14.375376 157.177859 -60.605046 -138.931938 0.000000 0.000000 0.000000 
-0.002478 0.829103 0.018929 -3.272075 -9.348004 5.162680 18.187219 -0.686310 24.125139 -11.628602 0.116278 -36.519901 82.820670 45.509907 93.816624 0.000000 0.000000 0.000000 -24.116543 3.855999 14.495285 28.487016 7.133666 -37.638494 -90.936588 -56.437045 84.765361 0.000000 0.000000 0.000000 2.904086 0.829903 -11.042801 2.971951 0.654740 -35.301200 1.807096 7.082614 44.420667 13.302964 0.851047 -72.186269 0.000000 0.000000 0.000000 -16.782791 9.452628 -5.499447 -54.135791 -6.603411 -8.339148 -68.862339 57.216809 -38.818027 0.000000 0.000000 0.000000 15.329119 -13.436530 -7.282846 54.026969 -11.167470 -14.539585 157.681532 -59.515312 -138.607259 0.000000 0.000000 0.000000 
-0.002478 0.828317 0.018929 -3.110311 -9.942553 4.927984 18.042828 -0.549413 23.420159 -12.062376 0.168310 -34.019373 81.881688 48.110080 89.179325 0.000000 0.000000 0.000000 -24.563626 3.903944 13.670071 29.129041 7.027809 -36.039741 -91.066791 -58.018811 82.546899 0.000000 0.000000 0.000000 2.744440 0.855777 -11.299601 2.709753 0.600920 -34.193007 2.534384 7.246380 43.821652 13.200693 0.812600 -71.745591 0.000000 0.000000 0.000000 -16.973077 9.464420 -5.515863 -53.754943 -5.733162 -8.575443 -81.494100 57.306049 -47.684206 0.000000 0.000000 0.000000 15.804859 -13.175872 -7.256509 54.841504 -10.706846 -14.484676 160.244295 -56.347527 -140.601538 0.000000 0.000000 0.000000 
-0.002478 0.827574 0.018929 -3.139198 -9.124360 4.996543 18.602575 -0.755018 22.887961 -13.055265 -0.077765 -33.905411 84.217884 48.581756 89.498888 0.000000 0.000000 0.000000 -24.397586 3.767518 13.777225 28.562078 6.923148 -36.948794 -94.657823 -57.188362 86.612168 0.000000 0.000000 0.000000 1.883662 0.744993 -10.955095 3.402311 0.636004 -35.708081 2.463908 6.726061 44.959120 12.391731 1.132872 -73.224763 0.000000 0.000000 0.000000 -16.791510 9.387847 -5.426749 -54.513145 -5.912722 -8.728886 -92.554022 57.724981 -56.332156 0.000000 0.000000 0.000000 16.148590 -13.218450 -7.314902 55.301795 -10.421771 -14.604629 162.514531 -52.939335 -141.792332 0.000000 0.000000 0.000000 
-0.002478 0.824810 0.018929 -3.183907 -8.474771 5.255727 18.718727 -0.904889 23.858663 -13.209930 -0.304832 -37.342055 92.201227 47.473412 95.907055 0.000000 0.000000 0.000000 -25.330528 4.179787 15.574990 28.137293 7.496829 -40.401415 -97.982540 -53.545173 93.959867 0.000000 0.000000 0.000000 1.545435 0.795744 -12.046442 3.076358 0.776956 -36.983492 3.212476 6.167970 46.863294 10.497722 1.775994 -76.503914 0.000000 0.000000 0.000000 -16.786748 8.994330 -5.147532 -55.099463 -6.524203 -8.790458 -103.276067 57.493045 -64.789263 0.000000 0.000000 0.000000 15.905796 -13.379144 -7.312735 56.499434 -11.226882 -15.485321 168.419790 -48.398446 -149.728225 0.000000 0.000000 0.000000 
-0.002478 0.820908 0.018929 -2.734204 -6.702759 5.190987 18.953062 -1.259459 24.859234 -12.183753 -0.519746 -41.980948 97.571136 41.633643 105.603217 0.000000 0.000000 0.000000 -25.947429 4.525426 18.676101 27.370833 8.133303 -45.912361 -104.991108 -48.383313 104.749544 0.000000 0.000000 0.000000 0.782147 0.761552 -12.950759 2.183850 1.003254 -39.368838 4.262812 4.829468 49.876766 6.844260 2.516289 -80.892667 0.000000 0.000000 0.000000 -16.687996 8.176087 -4.604400 -55.698840 -8.626189 -8.351197 -108.940463 59.019262 -71.185349 0.000000 0.000000 0.000000 15.837196 -13.735353 -7.403149 57.871723 -11.561966 -16.353603 177.376589 -45.287006 -166.936022 0.000000 0.000000 0.000000 
-0.002478 0.818401 0.018929 -2.314175 -5.301864 4.376565 18.793277 -1.487161 26.459889 -11.552765 -0.792947 -46.778729 103.238725 37.589297 111.822242 0.000000 0.000000 0.000000 -27.000675 5.157221 22.713846 27.606492 9.021237 -50.858269 -105.182465 -44.289651 109.881093 0.000000 0.000000 0.000000 0.403573 0.749898 -13.795468 1.759520 1.069411 -40.788556 5.302393 4.403236 52.006599 4.317636 2.725837 -83.913204 0.000000 0.000000 0.000000 -18.424433 5.706770 -3.456311 -53.400897 -11.740947 -7.288424 -107.417099 59.856806 -71.078552 0.000000 0.000000 0.000000 16.130002 -13.095388 -6.817148 56.651283 -10.045953 -15.783232 -173.581194 -42.325618 172.293561 0.000000 0.000000 0.000000 
-0.002478 0.816666 0.018929 -1.850478 -4.392055 2.367324 18.538385 -1.544063 27.429910 -13.117632 -1.537828 -47.504884 108.362573 40.466555 109.888632 0.000000 0.000000 0.000000 -27.777390 5.543442 25.546548 28.008906 9.077784 -51.330635 -106.234327 -45.056385 109.769094 0.000000 0.000000 0.000000 0.547841 0.767937 -14.236418 1.580251 0.918670 -38.804853 5.927187 5.141113 50.264138 1.949249 2.724464 -82.368141 0.000000 0.000000 0.000000 -19.309511 3.947856 -2.982775 -51.450728 -13.279281 -6.208477 -92.933989 64.287372 -64.374426 0.000000 0.000000 0.000000 16.973994 -11.956966 -6.027416 53.838123 -7.725611 -13.933740 -156.685726 -40.635694 131.369466 0.000000 0.000000 0.000000 
-0.002478 0.817394 0.018929 -1.599079 -4.964502 0.311171 18.158479 -1.336949 29.138509 -13.839456 -1.593257 -45.726428 108.410702 43.280154 107.262742 0.000000 0.000000 0.000000 -28.408925 5.904096 26.427475 28.387508 8.844188 -48.980401 -104.457234 -46.697490 107.041418 0.000000 0.000000 0.000000 1.056480 0.831203 -14.033534 2.506958 0.722236 -37.234162 5.493294 6.698531 48.476888 2.824661 2.563349 -80.369012 0.000000 0.000000 0.000000 -21.569394 2.173685 -2.549078 -48.195271 -13.323938 -5.664173 -56.231367 64.934794 -37.197558 0.000000 0.000000 0.000000 17.721215 -10.097729 -4.867328 51.113432 -4.462800 -11.945353 -134.365179 -40.925432 92.924454 0.000000 0.000000 0.000000 
-0.002478 0.816706 0.018929 -1.544435 -5.467103 -1.182106 18.259521 -1.224800 29.463664 -15.022933 -1.620748 -42.320988 110.728133 48.242203 103.145213 0.000000 0.000000 0.000000 -28.216921 5.772766 25.920859 28.412429 7.975050 -44.861561 -104.827431 -51.819865 101.215362 0.000000 0.000000 0.000000 1.883466 0.978216 -14.423009 1.712404 0.590840 -33.372214 5.849204 8.184212 44.510763 3.662515 2.392115 -75.738674 0.000000 0.000000 0.000000 -21.891075 0.712614 -2.243047 -48.279936 -12.731972 -5.222857 -27.457854 57.906306 -16.173468 0.000000 0.000000 0.000000 18.423977 -9.708038 -4.614378 50.211253 -1.585710 -10.209736 -97.788716 -41.322591 54.865668 0.000000 0.000000 0.000000 
-0.002478 0.816414 0.018929 -1.634983 -5.700849 -2.446870 18.753799 -1.290843 30.223998 -15.952982 -1.689628 -40.286906 109.006698 49.791179 100.805186 0.000000 0.000000 0.000000 -28.052343 5.581885 25.372196 28.459588 7.096842 -41.015591 -104.125013 -54.225575 97.889225 0.000000 0.000000 0.000000 2.569929 1.041569 -13.949960 1.559000 0.582750 -32.976698 5.208361 8.539071 43.450181 2.245580 2.589922 -74.614290 0.000000 0.000000 0.000000 -23.855806 -0.052429 -2.090486 -46.398504 -11.886663 -5.250628 -12.991816 50.507200 -7.192005 0.000000 0.000000 0.000000 19.655304 -8.182752 -3.801622 49.676909 0.381589 -9.392621 -62.180496 -33.972264 25.837933 0.000000 0.000000 0.000000 
-0.002478 0.816083 0.018929 -1.579322 -6.449354 -3.596596 18.625002 -1.058512 29.746661 -16.243091 -1.227057 -35.235843 105.982771 56.383920 91.814631 0.000000 0.000000 0.000000 -27.804963 5.245244 23.506254 28.739554 5.611331 -34.137072 -93.473018 -61.056374 81.251203 0.000000 0.000000 0.000000 3.303594 1.135780 -13.611347 1.355227 0.343201 -28.142492 4.216451 10.244878 37.989589 3.378612 2.461122 -67.865791 0.000000 0.000000 0.000000 -24.249432 -0.111512 -2.758614 -45.895188 -8.663194 -5.479757 -4.334612 40.552548 -2.895213 0.000000 0.000000 0.000000 20.338853 -8.623640 -4.097713 50.286150 0.019411 -8.922303 -35.682800 -13.730646 6.702465 0.000000 0.000000 0.000000 
-0.002478 0.816700 0.018929 -1.802130 -6.806696 -4.174163 19.124264 -1.114091 30.225873 -16.822741 -1.172844 -33.729745 100.870764 56.601124 88.435664 0.000000 0.000000 0.000000 -27.339413 5.004884 22.774733 28.389850 4.767867 -30.780957 -86.993869 -62.167654 74.028479 0.000000 0.000000 0.000000 3.728297 1.223593 -13.777705 1.118745 0.336888 -27.160476 4.106408 9.931019 36.325541 1.022697 2.950393 -65.514274 0.000000 0.000000 0.000000 -25.745731 0.240621 -3.100089 -44.980220 -6.222937 -6.032499 0.594853 34.657897 -0.954223 0.000000 0.000000 0.000000 20.109059 -8.646333 -4.301982 49.888270 -1.739848 -9.278134 -21.730742 -2.775732 1.661814 0.000000 0.000000 0.000000 
-0.002478 0.816870 0.018929 -1.923956 -7.199218 -4.269092 19.191439 -1.073991 30.745470 -16.867575 -1.111765 -33.423254 99.249552 57.420553 86.445671 0.000000 0.000000 0.000000 -27.523676 5.056021 22.402935 29.196642 4.562436 -29.046249 -79.827600 -62.549687 66.686031 0.000000 0.000000 0.000000 4.130388 1.368645 -14.543211 1.133789 0.285525 -26.288562 3.669027 10.131876 35.773376 1.588092 2.837967 -64.469468 0.000000 0.000000 0.000000 -25.737741 1.138408 -3.662791 -44.372154 -4.953819 -6.341154 2.335793 32.094947 -0.413171 0.000000 0.000000 0.000000 20.285778 -8.739370 -4.409990 49.181848 -3.329844 -9.696024 -11.677958 -0.724528 0.576128 0.000000 0.000000 0.000000 
